<svg width="19" height="19" viewBox="0 0 19 19" fill="none" xmlns="http://www.w3.org/2000/svg">
<path d="M9.5 0C4.24976 0 0 4.24891 0 9.5C0 14.7502 4.24891 19 9.5 19C11.3446 19 13.1522 18.4583 14.687 17.4592C15.1469 17.1598 15.2472 16.5288 14.8997 16.1042L14.5098 15.628C14.216 15.269 13.6985 15.181 13.308 15.4315C12.1784 16.156 10.8528 16.5484 9.5 16.5484C5.6135 16.5484 2.45161 13.3865 2.45161 9.5C2.45161 5.6135 5.6135 2.45161 9.5 2.45161C13.336 2.45161 16.5484 4.65879 16.5484 8.58065C16.5484 10.0664 15.7404 11.6353 14.3201 11.7866C13.6555 11.7692 13.6723 11.2941 13.8039 10.6365L14.7015 5.99722C14.8113 5.42994 14.3767 4.90323 13.7989 4.90323H12.0759C11.9487 4.90322 11.8259 4.95006 11.731 5.03479C11.6361 5.11952 11.5757 5.23622 11.5613 5.36264L11.561 5.36616C10.998 4.68044 10.0115 4.53204 9.26369 4.53204C6.40679 4.53204 3.98387 6.916 3.98387 10.3339C3.98387 12.8355 5.39297 14.3894 7.66129 14.3894C8.69495 14.3894 9.85889 13.7904 10.5339 12.921C10.8987 14.2274 12.0897 14.2274 13.2426 14.2274C17.4145 14.2274 19 11.4842 19 8.58065C19 3.35768 14.7872 0 9.5 0ZM8.66952 11.6616C7.81724 11.6616 7.2878 11.0632 7.2878 10.0998C7.2878 8.37632 8.46684 7.31385 9.53371 7.31385C10.3876 7.31385 10.8975 7.89768 10.8975 8.8756C10.8975 10.6017 9.59983 11.6616 8.66952 11.6616Z" fill="#262121" fill-opacity="0.5"/>
</svg>
