<svg width="28" height="19" viewBox="0 0 28 19" fill="none" xmlns="http://www.w3.org/2000/svg">
<path d="M27.8309 8.7776C25.1947 3.54221 19.9758 0 14 0C8.02423 0 2.80387 3.54469 0.16914 8.7781C0.0579383 9.002 0 9.24937 0 9.50025C0 9.75113 0.0579383 9.9985 0.16914 10.2224C2.80533 15.4578 8.02423 19 14 19C19.9758 19 25.1961 15.4553 27.8309 10.2219C27.9421 9.998 28 9.75063 28 9.49975C28 9.24887 27.9421 9.0015 27.8309 8.7776ZM14 16.625C12.6155 16.625 11.2621 16.2071 10.111 15.4242C8.95985 14.6413 8.06265 13.5285 7.53283 12.2266C7.00302 10.9247 6.86439 9.4921 7.13449 8.10998C7.40459 6.72787 8.07127 5.45831 9.05024 4.46186C10.0292 3.46542 11.2765 2.78682 12.6344 2.5119C13.9922 2.23699 15.3997 2.37808 16.6788 2.91736C17.9579 3.45663 19.0511 4.36986 19.8203 5.54156C20.5895 6.71326 21 8.09081 21 9.5C21.0005 10.4358 20.8197 11.3625 20.4681 12.2272C20.1165 13.0918 19.6009 13.8774 18.9508 14.5392C18.3007 15.2009 17.5288 15.7257 16.6793 16.0836C15.8298 16.4415 14.9194 16.6255 14 16.625ZM14 4.75C13.5835 4.75593 13.1696 4.819 12.7697 4.93753C13.0993 5.39356 13.2576 5.95476 13.2156 6.51935C13.1736 7.08393 12.9343 7.61452 12.5409 8.01488C12.1476 8.41525 11.6263 8.65887 11.0716 8.70158C10.517 8.7443 9.9656 8.58326 9.51756 8.24768C9.26243 9.20441 9.30849 10.2185 9.64924 11.1472C9.98999 12.0758 10.6083 12.8724 11.4171 13.4247C12.2259 13.9769 13.1845 14.2572 14.158 14.2259C15.1314 14.1946 16.0707 13.8533 16.8437 13.2502C17.6166 12.647 18.1843 11.8124 18.4668 10.8636C18.7493 9.91491 18.7324 8.89991 18.4184 7.96148C18.1045 7.02306 17.5093 6.20847 16.7167 5.63237C15.9241 5.05627 14.9739 4.74767 14 4.75Z" fill="#262121" fill-opacity="0.5"/>
</svg>
