<svg width="28" height="19" viewBox="0 0 28 19" fill="none" xmlns="http://www.w3.org/2000/svg">
<path d="M13.9999 14.8437C10.6814 14.8437 7.99519 12.665 7.74801 9.90412L3.15865 6.89569C2.55534 7.53768 2.00015 8.2164 1.55215 8.95858C1.45207 9.1265 1.39992 9.31203 1.39992 9.50019C1.39992 9.68834 1.45207 9.87387 1.55215 10.0418C3.92471 13.9683 8.62169 16.6249 13.9999 16.6249C15.1772 16.6249 16.3129 16.4765 17.4075 16.2368L15.1374 14.7468C14.7624 14.8083 14.3817 14.8407 13.9999 14.8437ZM27.7294 16.9997L22.8929 13.8291C24.3621 12.7789 25.5704 11.4914 26.4476 10.0414C26.5477 9.8735 26.5998 9.68797 26.5998 9.49981C26.5998 9.31166 26.5477 9.12613 26.4476 8.95821C24.075 5.03171 19.378 2.37507 13.9999 2.37507C11.7474 2.37739 9.53152 2.85837 7.55463 3.77408L1.98877 0.125155C1.91619 0.0772498 1.8332 0.0419454 1.74452 0.0212588C1.65585 0.000572325 1.56324 -0.00509081 1.47199 0.00459307C1.38074 0.0142769 1.29263 0.039118 1.2127 0.0776967C1.13277 0.116275 1.06258 0.167836 1.00615 0.229431L0.147342 1.16718C0.0334171 1.29148 -0.0176321 1.44909 0.00542241 1.60532C0.0284769 1.76155 0.123747 1.90362 0.27028 2.00027L26.011 18.8748C26.0835 18.9228 26.1665 18.9581 26.2552 18.9787C26.3439 18.9994 26.4365 19.0051 26.5277 18.9954C26.619 18.9857 26.7071 18.9609 26.787 18.9223C26.867 18.8837 26.9371 18.8322 26.9936 18.7706L27.8528 17.8328C27.9667 17.7085 28.0177 17.5508 27.9945 17.3946C27.9714 17.2384 27.876 17.0963 27.7294 16.9997ZM19.6917 11.7303L17.9723 10.6029C18.1171 10.2479 18.194 9.87557 18.1998 9.5C18.2084 8.95014 18.0648 8.40625 17.7805 7.91201C17.4963 7.41777 17.0794 6.98696 16.5632 6.65419C16.0471 6.32142 15.4462 6.09596 14.8087 5.99592C14.1712 5.89588 13.5149 5.92406 12.8926 6.07818C13.1564 6.3814 13.2991 6.74818 13.2999 7.12502C13.2933 7.25043 13.2707 7.37486 13.2325 7.49611L10.0121 5.38498C11.1307 4.59204 12.542 4.15722 13.9999 4.1563C14.8273 4.15591 15.6467 4.29387 16.4113 4.56227C17.1759 4.83068 17.8705 5.22428 18.4556 5.72057C19.0407 6.21685 19.5048 6.80609 19.8212 7.4546C20.1377 8.1031 20.3003 8.79815 20.2998 9.5C20.2998 10.3027 20.0684 11.0508 19.6917 11.7306V11.7303Z" fill="#262121" fill-opacity="0.5"/>
</svg>
